# xmcd
#
# Track frame offsets:
#	150
#	11310
#	24653
#	33865
#	46880
#	54549
#	63495
#	82463
#	96851
#	117576
#	134451
#	148283
#	158952
#	168766
#
# Disc length: 2411 seconds
#
# Revision: 2
# Processed by: cddbd v1.5.2PL0 Copyright (c) Steve Scherf et al.
# Submitted via: VUPlayer 2.42
#
DISCID=c209690e
DTITLE=Tuláci - Zlate casy ceske country III
DYEAR=2000
DGENRE=Country
TTITLE0=Tak ja jdu dal
TTITLE1=Necekej uz dal
TTITLE2=Rovnou
TTITLE3=Zvednete kotvy
TTITLE4=Slapej dal
TTITLE5=Za chvili uz budu v dali
TTITLE6=Divka s vlasem medovym
TTITLE7=Blizko Little Big Hornu
TTITLE8=Oranzovy Express
TTITLE9=Tupadol
TTITLE10=Na Vanoce rano
TTITLE11=Ja v posledni dobe
TTITLE12=Jizni vlak
TTITLE13=Hribe
EXTD=
EXTT0=
EXTT1=
EXTT2=
EXTT3=
EXTT4=
EXTT5=
EXTT6=
EXTT7=
EXTT8=
EXTT9=
EXTT10=
EXTT11=
EXTT12=
EXTT13=
PLAYORDER=
